<svg width="32" height="32" viewBox="0 0 32 32" fill="none" xmlns="http://www.w3.org/2000/svg">
<path d="M11.3333 25.3333C10.9377 25.3333 10.5511 25.4506 10.2222 25.6704C9.89325 25.8902 9.63691 26.2025 9.48553 26.568C9.33416 26.9334 9.29455 27.3356 9.37172 27.7235C9.44889 28.1115 9.63937 28.4678 9.91908 28.7475C10.1988 29.0273 10.5551 29.2177 10.9431 29.2949C11.3311 29.3721 11.7332 29.3325 12.0987 29.1811C12.4641 29.0297 12.7765 28.7734 12.9962 28.4445C13.216 28.1156 13.3333 27.7289 13.3333 27.3333C13.3333 26.8029 13.1226 26.2942 12.7475 25.9191C12.3724 25.544 11.8637 25.3333 11.3333 25.3333ZM25.3333 21.3333H9.33329C8.97967 21.3333 8.64053 21.1929 8.39048 20.9428C8.14044 20.6928 7.99996 20.3536 7.99996 20C7.99996 19.6464 8.14044 19.3072 8.39048 19.0572C8.64053 18.8071 8.97967 18.6667 9.33329 18.6667H20.6549C21.5235 18.6639 22.3677 18.3797 23.0612 17.8567C23.7546 17.3336 24.2599 16.6 24.5013 15.7656L26.6152 8.36653C26.6719 8.1681 26.6818 7.9592 26.644 7.7563C26.6063 7.5534 26.522 7.36202 26.3977 7.19724C26.2735 7.03246 26.1126 6.89878 25.9279 6.80671C25.7432 6.71464 25.5397 6.6667 25.3333 6.66667H8.98539C8.70937 5.88981 8.20055 5.21695 7.52826 4.73975C6.85597 4.26256 6.0529 4.00424 5.22848 4H3.99996C3.64634 4 3.3072 4.14048 3.05715 4.39052C2.8071 4.64057 2.66663 4.97971 2.66663 5.33333C2.66663 5.68696 2.8071 6.02609 3.05715 6.27614C3.3072 6.52619 3.64634 6.66667 3.99996 6.66667H5.22848C5.51792 6.66768 5.79925 6.76242 6.03034 6.93671C6.26143 7.11099 6.42985 7.35545 6.51037 7.63347L6.71773 8.35979L6.71805 8.36653L8.90556 16.0228C7.88764 16.1323 6.95046 16.6279 6.28698 17.4076C5.6235 18.1873 5.28424 19.1918 5.33906 20.2141C5.39388 21.2364 5.8386 22.1988 6.58164 22.9031C7.32469 23.6074 8.3095 24 9.33329 24H25.3333C25.6869 24 26.0261 23.8595 26.2761 23.6095C26.5262 23.3594 26.6666 23.0203 26.6666 22.6667C26.6666 22.313 26.5262 21.9739 26.2761 21.7239C26.0261 21.4738 25.6869 21.3333 25.3333 21.3333ZM23.5657 9.33333L21.9375 15.0325C21.857 15.3108 21.6886 15.5555 21.4573 15.7299C21.2261 15.9043 20.9445 15.9991 20.6549 16H11.6725L11.3326 14.8104L9.76852 9.33333H23.5657ZM22 25.3333C21.6044 25.3333 21.2177 25.4506 20.8888 25.6704C20.5599 25.8902 20.3036 26.2025 20.1522 26.568C20.0008 26.9334 19.9612 27.3356 20.0384 27.7235C20.1156 28.1115 20.306 28.4678 20.5857 28.7475C20.8655 29.0273 21.2218 29.2177 21.6098 29.2949C21.9977 29.3721 22.3999 29.3325 22.7653 29.1811C23.1308 29.0297 23.4431 28.7734 23.6629 28.4445C23.8827 28.1156 24 27.7289 24 27.3333C24 26.8029 23.7892 26.2942 23.4142 25.9191C23.0391 25.544 22.5304 25.3333 22 25.3333Z" fill="black"/>
</svg>
